<svg width="243" height="169" viewBox="0 0 243 169" fill="none" xmlns="http://www.w3.org/2000/svg">
<path d="M139.894 72.0512C140.612 72.7726 141.579 72.9419 142.418 73.3174C158.525 80.3846 174.172 88.2911 189.184 97.3607C190.899 98.3987 192.486 99.6502 194.103 100.85C195.07 101.564 195.47 102.595 194.873 103.648C194.261 104.722 193.196 105.068 191.919 104.678C191.677 103.692 193.105 103.419 192.841 102.389C191.715 102.639 191.541 104.053 190.302 104.295C190.106 103.118 191.617 102.779 191.466 101.616C190.197 101.851 190.068 103.478 188.678 103.78C188.693 102.499 190.061 102.057 190.091 100.924C188.716 101.181 188.542 102.838 187.031 103.206C187.205 101.903 188.444 101.365 188.776 100.107C187.159 100.438 187.076 102.381 185.429 102.646C185.603 101.24 187.144 100.696 187.258 99.2306C185.807 99.9152 185.452 101.483 183.911 102.264C184.069 100.629 185.58 100.033 185.837 98.568C184.258 99.2159 183.948 100.931 182.354 101.653C182.513 99.9815 184.205 99.3263 184.447 97.6994C182.792 98.5312 182.452 100.35 180.685 101.159C181.093 99.422 182.543 98.6343 183.117 97.1031C181.229 97.6405 181.04 99.8563 178.75 100.548C179.952 98.9361 180.821 97.7803 181.682 96.6172C179.763 97.0957 179.476 99.2306 177.436 100.04C178.055 98.2 179.634 97.2724 180.307 95.3804C178.358 96.5068 177.851 98.4797 175.97 99.6208C176.408 97.53 178.252 96.6172 178.803 94.6442C176.847 95.7338 176.408 97.9497 174.346 98.5312C175.373 97.1031 176.401 95.6749 177.421 94.2467C175.426 95.1228 174.844 97.2797 172.608 98.6343C173.469 96.3301 175.29 95.1816 176.091 92.9069C173.983 94.4528 173.288 96.5877 171.596 97.7951C171.445 97.692 171.294 97.5889 171.142 97.4932C172.298 95.9252 173.447 94.3571 174.603 92.7891C174.452 92.6713 174.3 92.5462 174.157 92.4284C172.812 94.0627 171.46 95.697 170.115 97.3313C170.387 95.0639 172.442 93.8418 173.175 91.4051C171.082 93.1056 170.221 95.2774 168.339 96.6098C168.914 94.5191 170.772 93.1351 171.664 91.2284C171.535 91.1253 171.399 91.0223 171.271 90.9192C169.858 92.6934 168.445 94.4602 167.032 96.2344C166.881 96.1313 166.73 96.0282 166.579 95.9252C167.403 93.886 169.352 92.4578 169.873 90.161C168.385 92.0161 166.896 93.8639 165.408 95.7191C165.227 95.5792 165.038 95.4319 164.857 95.2921C166.209 93.459 167.561 91.6186 168.906 89.7855C166.564 91.0738 165.68 93.5915 163.708 95.1375C163.557 95.0344 163.406 94.9314 163.255 94.8209C164.668 92.8774 166.08 90.9339 167.493 88.9905C167.327 88.88 167.161 88.7622 167.002 88.6518C165.438 90.6542 163.867 92.6566 162.303 94.659C162.114 94.5191 161.925 94.3792 161.736 94.2467C163.164 92.2664 164.592 90.2861 166.028 88.3058C165.869 88.1659 165.703 88.0261 165.544 87.8862C164.736 88.9463 163.98 90.0653 163.089 91.0591C162.22 92.0308 161.865 93.5105 160.006 94.1068C161.396 91.5229 163.398 89.7413 164.116 87.15C162.469 89.2996 160.814 91.4493 159.167 93.5989C159.001 93.4885 158.835 93.378 158.669 93.2676C159.832 90.8971 161.857 89.0125 163.172 86.7304C163.028 86.62 162.885 86.5096 162.741 86.3991C161.026 88.6003 159.319 90.8014 157.604 93.0026C157.452 92.8995 157.301 92.7891 157.158 92.686C158.276 90.2051 160.52 88.3647 161.698 85.9132C161.555 85.8028 161.404 85.6998 161.26 85.5893C159.538 87.8936 157.815 90.1978 156.092 92.502C155.911 92.3842 155.737 92.2738 155.556 92.156C156.757 89.6015 159.077 87.6727 159.885 84.8311C158.072 87.2163 156.251 89.6088 154.438 91.994C154.241 91.8542 154.045 91.7216 153.841 91.5818C155.556 89.1892 157.271 86.804 158.986 84.4115C158.82 84.2937 158.646 84.1759 158.48 84.0581C156.621 86.5096 154.755 88.961 152.897 91.4198C152.693 91.2726 152.489 91.1254 152.285 90.9855C154.053 88.5561 155.813 86.1194 157.581 83.69C157.407 83.5649 157.241 83.4397 157.067 83.3072C155.141 85.847 153.222 88.3794 151.295 90.9192C151.091 90.7793 150.887 90.6468 150.683 90.507C152.504 87.9745 154.325 85.4495 156.145 82.917C155.964 82.7845 155.79 82.652 155.609 82.5269C153.652 85.155 151.703 87.7831 149.746 90.4039C149.535 90.2567 149.323 90.1094 149.112 89.9548C150.985 87.3488 152.866 84.7501 154.74 82.1441C154.551 82.0115 154.37 81.879 154.181 81.7465C152.186 84.4483 150.192 87.1574 148.197 89.8591C147.986 89.6972 147.767 89.5426 147.555 89.3806C149.474 86.7083 151.393 84.036 153.312 81.3711C153.123 81.2459 152.934 81.1134 152.753 80.9883C150.721 83.7563 148.688 86.5316 146.656 89.2996C146.437 89.1524 146.218 89.0125 145.999 88.8653C147.956 86.1267 149.905 83.3882 151.862 80.6496C151.673 80.5245 151.484 80.392 151.303 80.2668C149.232 83.0937 147.17 85.9206 145.1 88.7475C144.873 88.6003 144.646 88.4457 144.412 88.2985C146.422 85.501 148.439 82.7036 150.449 79.9135C150.26 79.781 150.063 79.6411 149.875 79.5086C147.752 82.4164 145.636 85.317 143.513 88.2248C143.302 88.085 143.09 87.9377 142.879 87.7979C144.911 84.9121 146.951 82.0263 148.983 79.1479C148.809 79.0227 148.636 78.8975 148.469 78.7724C146.278 81.7612 144.08 84.7575 141.889 87.7463C141.67 87.5917 141.458 87.4445 141.239 87.2899C143.354 84.3379 145.462 81.3858 147.578 78.4264C147.389 78.2939 147.2 78.154 147.019 78.0215C144.805 81.0693 142.584 84.117 140.37 87.1647C140.151 87.0102 139.932 86.8629 139.713 86.7083C141.874 83.6753 144.027 80.6496 146.188 77.6166C146.014 77.4915 145.84 77.3663 145.659 77.2412C143.347 80.3699 141.035 83.506 138.716 86.6347C138.519 86.4875 138.315 86.3329 138.119 86.1856C140.332 83.079 142.546 79.965 144.76 76.8584C144.563 76.7258 144.374 76.6007 144.178 76.4682C142.811 78.3675 141.428 80.2668 140.068 82.1735C137.288 86.0679 137.288 86.0752 132.747 84.5145C128.864 83.1747 124.973 81.857 121.135 80.4214C120.243 80.0901 119.563 80.311 118.808 80.5539C96.9279 87.739 75.0482 94.9387 53.1609 102.109C51.9747 102.499 50.4032 103.633 49.5495 102.013C48.7789 100.556 50.3881 99.6355 51.3854 98.8699C61.1089 91.383 71.9052 85.6777 83.2682 80.9441C89.8563 78.2055 96.5653 75.7835 103.312 73.4572C103.607 73.3542 104.015 73.4278 104.12 72.9787C103.939 72.4781 103.41 72.4413 103.025 72.2426C92.0851 66.7728 81.1376 61.3031 70.1827 55.8554C69.5405 55.5388 68.8983 54.7438 68.2259 55.9511C65.0527 61.6491 57.3162 63.4674 50.7205 61.0748C44.4195 58.7927 40.5059 53.4039 40.6268 46.9845C40.657 45.549 39.9695 45.1146 38.806 44.9012C34.4014 44.0987 30.4651 44.8791 27.2768 48.1624C26.9746 48.4716 26.7706 48.9943 26 48.744C26.408 46.7931 27.6999 45.3797 29.1581 44.1723C32.6939 41.2497 36.8492 40.0866 41.4277 40.7344C42.5685 40.8964 43.1351 40.5946 43.8453 39.8878C47.9553 35.8094 54.3092 34.8009 60.2098 37.245C66.05 39.6596 70.1222 44.9969 69.6991 50.5034C69.5178 52.8592 70.2809 53.588 72.3208 54.3021C84.6508 58.5866 96.8448 63.2686 109.575 66.4121C112.333 67.0894 115.03 67.0599 117.795 66.6256C119.684 66.3311 121.573 66.4931 123.432 66.9568C126 67.6047 128.38 66.5078 130.805 66.0808C143.241 63.8797 154.861 59.1314 166.677 55.0014C169.095 54.1548 171.467 53.2125 173.87 52.3439C174.701 52.042 175.237 51.7328 175.048 50.6654C173.62 42.6706 181.085 34.9187 189.887 34.5653C197.162 34.2708 202.731 38.1946 203.886 44.3122C204.982 50.1206 201.144 56.459 194.858 59.2123C187.809 62.2969 180.866 60.6184 176.522 54.729C176.046 54.0812 175.759 53.8236 174.935 54.2432C163.27 60.1767 151.597 66.1029 139.894 72.0512ZM190 37.672C184.931 37.9811 180.685 40.0645 178.169 44.7613C175.351 50.0323 178.063 55.9069 183.888 57.4382C188.935 58.7706 194.843 56.7388 197.948 52.5647C200.2 49.5317 201.061 46.2483 199.255 42.7442C197.419 39.1737 194.11 37.9149 190 37.672ZM55.8127 39.24C46.7767 39.1369 42.1681 45.6521 45.4848 52.2408C48.2273 57.6811 55.5181 60.6331 61.3507 58.6676C66.5184 56.9228 68.9738 51.7181 66.7299 46.852C64.4256 41.8534 60.1947 39.5345 55.8127 39.24ZM123.477 73.229C123.499 71.4843 122.124 70.115 120.326 70.1003C118.558 70.0782 117.07 71.4549 117.032 73.1333C116.994 74.7971 118.46 76.24 120.228 76.2621C122.026 76.2841 123.447 74.959 123.477 73.229Z" fill="url(#paint0_linear)"/>
<path d="M101.578 45.5877C103.018 44.1344 103.798 42.3606 104.359 40.4824C104.473 40.1023 104.73 39.5582 104.329 39.3197C103.897 39.0588 103.624 39.5955 103.336 39.8712C102.374 40.8029 101.745 42.0103 100.729 42.9046C97.8045 45.4834 94.3492 46.3479 90.515 46.0051C90.3862 45.9977 90.265 45.9306 89.9694 45.8337C91.8638 45.5505 92.9549 44.4251 93.8869 43.091C93.9779 42.9643 94.0688 42.8301 94.1294 42.6885C94.2582 42.3531 94.5083 42.0028 94.2507 41.66C93.9855 41.3097 93.5763 41.4364 93.2201 41.5258C92.2351 41.7718 91.3409 42.2413 90.4847 42.7407C86.5899 45.0064 82.0359 44.1046 78.7776 42.0252C78.7397 42.0028 78.7321 41.9357 78.6715 41.809C79.6566 42.0773 80.6113 42.1891 81.5812 42.1593C82.5284 42.1221 83.468 42.0326 84.3925 41.7643C82.6724 41.5109 81.0281 41.0265 79.5656 40.1172C76.7165 38.3434 75.0344 35.8317 74.9889 32.4629C74.9358 28.6469 78.376 25.9862 82.1799 26.806C83.6802 27.1339 84.9759 27.76 85.7337 29.1686C86.2944 30.1972 86.2262 31.4642 85.4685 32.2244C85.3472 31.1213 84.9532 30.2344 84.0666 29.5786C82.68 28.5426 80.3916 28.6767 79.2701 29.9139C78.1032 31.2033 78.2623 33.1784 79.6414 34.4752C81.3539 36.0925 83.5286 36.6739 85.7715 36.9422C88.7343 37.2999 91.6137 36.9049 94.3416 35.6081C95.8798 34.8777 97.0771 33.7523 98.2591 32.6045C101.093 29.8618 104.276 27.6706 108.14 26.6122C110.944 25.8446 113.77 25.7253 116.574 26.6793C118.127 27.2085 119.241 28.2295 120.014 29.6978C122.007 26.6048 125.113 26.2023 128.379 26.3216C132.471 26.4706 135.957 28.2072 139.185 30.5624C140.829 31.7623 142.155 33.3125 143.807 34.4901C146.656 36.5099 149.861 37.2701 153.332 36.9347C155.34 36.7409 157.317 36.3459 159.053 35.2578C160.303 34.4678 161.432 33.551 161.44 31.9039C161.44 30.1972 160.235 28.8929 158.56 28.7364C156.673 28.5649 154.953 29.6605 154.59 31.2704C154.537 31.5163 154.612 31.7996 154.355 31.9784C153.521 31.0021 153.688 29.3028 154.718 28.2221C156.249 26.6197 158.992 26.0533 161.258 26.8731C163.387 27.6408 164.819 29.5935 164.933 31.8815C165.122 35.5857 162.857 38.9918 159.166 40.6165C158.098 41.0861 156.984 41.3917 155.84 41.6376C157.795 42.1072 159.742 42.2413 161.856 41.3395C161.068 42.137 160.257 42.4574 159.469 42.8226C156.12 44.358 152.786 44.3803 149.482 42.6661C148.596 42.204 147.724 41.6972 146.724 41.5035C145.868 41.3395 145.504 41.7196 145.883 42.4873C146.717 44.1567 147.982 45.379 149.952 45.7741C149.21 46.1169 147.694 46.2138 146.209 46.0051C142.67 45.5058 139.723 44.03 137.631 41.0786C137.328 40.6538 136.949 40.2886 136.593 39.901C136.366 39.6551 136.101 39.2899 135.752 39.4464C135.366 39.6178 135.563 40.0501 135.638 40.3631C136.116 42.3755 137.071 44.1493 138.533 45.7592C137.252 45.5132 136.131 45.0511 135.032 44.5443C132.903 43.5605 130.971 42.3158 129.554 40.4079C129.448 40.2588 129.342 40.0576 129.122 40.1545C128.864 40.2663 128.978 40.5196 129.008 40.706C129.281 42.1891 129.948 43.4562 131.16 44.4102C131.509 44.6859 131.865 44.9393 132.145 45.2971C126.978 43.5307 122.477 40.9221 119.855 35.7646C118.711 38.1943 116.937 40.0725 114.793 41.6227C112.679 43.1506 110.421 44.4102 107.784 45.2076C107.92 44.8275 108.17 44.753 108.367 44.6188C109.792 43.6201 110.694 42.2935 110.966 40.5793C111.004 40.3557 111.133 40.0427 110.913 39.9309C110.603 39.7818 110.474 40.1395 110.33 40.3259C108.14 43.1431 105.079 44.5965 101.752 45.6325C101.737 45.6175 101.684 45.5952 101.578 45.5877Z" fill="#E5E5E5"/>
<path d="M101.578 45.5877C103.018 44.1344 103.798 42.3606 104.359 40.4824C104.473 40.1023 104.73 39.5582 104.329 39.3197C103.897 39.0588 103.624 39.5955 103.336 39.8712C102.374 40.8029 101.745 42.0103 100.729 42.9046C97.8045 45.4834 94.3492 46.3479 90.515 46.0051C90.3862 45.9977 90.265 45.9306 89.9694 45.8337C91.8638 45.5505 92.9549 44.4251 93.8869 43.091C93.9779 42.9643 94.0688 42.8301 94.1294 42.6885C94.2582 42.3531 94.5083 42.0028 94.2507 41.66C93.9855 41.3097 93.5763 41.4364 93.2201 41.5258C92.2351 41.7718 91.3409 42.2413 90.4847 42.7407C86.5899 45.0064 82.0359 44.1046 78.7776 42.0252C78.7397 42.0028 78.7321 41.9357 78.6715 41.809C79.6566 42.0773 80.6113 42.1891 81.5812 42.1593C82.5284 42.1221 83.468 42.0326 84.3925 41.7643C82.6724 41.5109 81.0281 41.0265 79.5656 40.1172C76.7165 38.3434 75.0344 35.8317 74.9889 32.4629C74.9358 28.6469 78.376 25.9862 82.1799 26.806C83.6802 27.1339 84.9759 27.76 85.7337 29.1686C86.2944 30.1972 86.2262 31.4642 85.4685 32.2244C85.3472 31.1213 84.9532 30.2344 84.0666 29.5786C82.68 28.5426 80.3916 28.6767 79.2701 29.9139C78.1032 31.2033 78.2623 33.1784 79.6414 34.4752C81.3539 36.0925 83.5286 36.6739 85.7715 36.9422C88.7343 37.2999 91.6137 36.9049 94.3416 35.6081C95.8798 34.8777 97.0771 33.7523 98.2591 32.6045C101.093 29.8618 104.276 27.6706 108.14 26.6122C110.944 25.8446 113.77 25.7253 116.574 26.6793C118.127 27.2085 119.241 28.2295 120.014 29.6978C122.007 26.6048 125.113 26.2023 128.379 26.3216C132.471 26.4706 135.957 28.2072 139.185 30.5624C140.829 31.7623 142.155 33.3125 143.807 34.4901C146.656 36.5099 149.861 37.2701 153.332 36.9347C155.34 36.7409 157.317 36.3459 159.053 35.2578C160.303 34.4678 161.432 33.551 161.44 31.9039C161.44 30.1972 160.235 28.8929 158.56 28.7364C156.673 28.5649 154.953 29.6605 154.59 31.2704C154.537 31.5163 154.612 31.7996 154.355 31.9784C153.521 31.0021 153.688 29.3028 154.718 28.2221C156.249 26.6197 158.992 26.0533 161.258 26.8731C163.387 27.6408 164.819 29.5935 164.933 31.8815C165.122 35.5857 162.857 38.9918 159.166 40.6165C158.098 41.0861 156.984 41.3917 155.84 41.6376C157.795 42.1072 159.742 42.2413 161.856 41.3395C161.068 42.137 160.257 42.4574 159.469 42.8226C156.12 44.358 152.786 44.3803 149.482 42.6661C148.596 42.204 147.724 41.6972 146.724 41.5035C145.868 41.3395 145.504 41.7196 145.883 42.4873C146.717 44.1567 147.982 45.379 149.952 45.7741C149.21 46.1169 147.694 46.2138 146.209 46.0051C142.67 45.5058 139.723 44.03 137.631 41.0786C137.328 40.6538 136.949 40.2886 136.593 39.901C136.366 39.6551 136.101 39.2899 135.752 39.4464C135.366 39.6178 135.563 40.0501 135.638 40.3631C136.116 42.3755 137.071 44.1493 138.533 45.7592C137.252 45.5132 136.131 45.0511 135.032 44.5443C132.903 43.5605 130.971 42.3158 129.554 40.4079C129.448 40.2588 129.342 40.0576 129.122 40.1545C128.864 40.2663 128.978 40.5196 129.008 40.706C129.281 42.1891 129.948 43.4562 131.16 44.4102C131.509 44.6859 131.865 44.9393 132.145 45.2971C126.978 43.5307 122.477 40.9221 119.855 35.7646C118.711 38.1943 116.937 40.0725 114.793 41.6227C112.679 43.1506 110.421 44.4102 107.784 45.2076C107.92 44.8275 108.17 44.753 108.367 44.6188C109.792 43.6201 110.694 42.2935 110.966 40.5793C111.004 40.3557 111.133 40.0427 110.913 39.9309C110.603 39.7818 110.474 40.1395 110.33 40.3259C108.14 43.1431 105.079 44.5965 101.752 45.6325C101.737 45.6175 101.684 45.5952 101.578 45.5877Z" fill="url(#paint1_linear)"/>
<g opacity="0.9">
<path d="M110.596 45.3494C108.057 46.9444 105.269 47.9356 102.344 48.6288C97.4868 49.7765 92.5994 50.5666 87.5831 50.2759C82.6729 49.9852 78.1416 48.5915 74.1559 45.6774C71.4735 43.7098 70.0035 41.0639 69.6474 37.8368C69.3594 35.2729 69.6246 32.7463 70.5718 30.3092C70.64 30.1377 70.6855 29.9589 70.784 29.8098C70.9431 29.5713 70.9734 29.0794 71.3371 29.1838C71.663 29.2806 71.4356 29.6906 71.3977 29.9589C70.6703 34.7661 72.6025 38.4032 76.5049 41.1683C76.611 41.2428 76.7701 41.2875 76.8307 41.3844C78.0583 43.5234 80.286 44.0526 82.4153 44.6861C85.6509 45.6475 88.6818 45.0364 91.5385 43.3818C91.8946 43.1731 92.2735 43.0092 92.6903 42.8899C92.0007 43.7619 91.3263 44.6339 90.0533 44.7159C89.4396 44.7606 89.0077 45.096 88.9546 45.7444C88.9016 46.4152 89.3259 46.7431 89.9094 46.8997C91.4021 47.2947 92.9024 47.1829 94.3952 46.9444C97.1458 46.5047 99.6084 45.4463 101.632 43.5085C101.677 43.4638 101.753 43.4489 101.95 43.3669C101.586 44.1271 101.2 44.6861 100.48 44.9246C99.8206 45.1407 99.4872 45.5805 99.6994 46.2289C99.9116 46.8773 100.45 47.0189 101.109 46.8699C102.867 46.4599 104.534 45.819 106.133 44.9917C106.466 44.8203 106.671 44.6116 106.731 45.2451C106.799 45.968 107.375 46.2587 108.133 46.1395C108.982 45.9904 109.747 45.5581 110.596 45.3494Z" fill="#E5E5E5"/>
<path d="M110.596 45.3494C108.057 46.9444 105.269 47.9356 102.344 48.6288C97.4868 49.7765 92.5994 50.5666 87.5831 50.2759C82.6729 49.9852 78.1416 48.5915 74.1559 45.6774C71.4735 43.7098 70.0035 41.0639 69.6474 37.8368C69.3594 35.2729 69.6246 32.7463 70.5718 30.3092C70.64 30.1377 70.6855 29.9589 70.784 29.8098C70.9431 29.5713 70.9734 29.0794 71.3371 29.1838C71.663 29.2806 71.4356 29.6906 71.3977 29.9589C70.6703 34.7661 72.6025 38.4032 76.5049 41.1683C76.611 41.2428 76.7701 41.2875 76.8307 41.3844C78.0583 43.5234 80.286 44.0526 82.4153 44.6861C85.6509 45.6475 88.6818 45.0364 91.5385 43.3818C91.8946 43.1731 92.2735 43.0092 92.6903 42.8899C92.0007 43.7619 91.3263 44.6339 90.0533 44.7159C89.4396 44.7606 89.0077 45.096 88.9546 45.7444C88.9016 46.4152 89.3259 46.7431 89.9094 46.8997C91.4021 47.2947 92.9024 47.1829 94.3952 46.9444C97.1458 46.5047 99.6084 45.4463 101.632 43.5085C101.677 43.4638 101.753 43.4489 101.95 43.3669C101.586 44.1271 101.2 44.6861 100.48 44.9246C99.8206 45.1407 99.4872 45.5805 99.6994 46.2289C99.9116 46.8773 100.45 47.0189 101.109 46.8699C102.867 46.4599 104.534 45.819 106.133 44.9917C106.466 44.8203 106.671 44.6116 106.731 45.2451C106.799 45.968 107.375 46.2587 108.133 46.1395C108.982 45.9904 109.747 45.5581 110.596 45.3494Z" fill="url(#paint2_linear)"/>
</g>
<g opacity="0.9">
<path d="M130.35 46.0573C131.07 46.0275 131.683 46.4001 132.381 46.3554C133.207 46.3032 133.479 45.7517 133.51 44.9468C135.23 45.7964 136.957 46.497 138.791 46.9069C138.996 46.9516 139.2 47.0113 139.412 47.0187C139.996 47.0411 140.382 46.743 140.504 46.2063C140.64 45.6324 140.337 45.2225 139.791 45.0735C138.874 44.8201 138.533 44.0822 138.132 43.3593C139.231 44.3282 140.405 45.1927 141.761 45.7815C144.201 46.8398 146.747 47.3019 149.407 47.056C149.869 47.0113 150.278 46.8398 150.68 46.6535C151.157 46.4374 151.301 46.0126 151.233 45.543C151.165 45.0586 150.832 44.6934 150.331 44.6934C148.93 44.7083 148.172 43.7692 147.202 42.763C148.263 43.0984 149.013 43.635 149.839 44.0002C153.135 45.4685 156.424 45.1927 159.682 43.8661C160.561 43.5083 161.394 43.0462 162.167 42.4873C162.667 42.1221 163.137 41.7494 163.16 41.0786C163.175 40.6836 163.531 40.6016 163.766 40.4228C166.805 38.0676 168.396 35.0119 168.411 31.1959C168.411 30.6295 168.267 30.063 168.184 29.4966C168.154 29.2506 167.972 28.8854 168.244 28.796C168.601 28.6768 168.661 29.1165 168.775 29.3475C169.396 30.622 169.768 31.9785 169.942 33.3796C170.252 35.8615 170.169 38.2986 169.214 40.6687C168.222 43.1282 166.418 44.8573 164.221 46.251C159.235 49.4037 153.703 50.3726 147.907 50.0596C142.928 49.7912 138.041 48.9192 133.313 47.3019C132.305 46.9516 131.342 46.4746 130.35 46.0573Z" fill="#E5E5E5"/>
<path d="M130.35 46.0573C131.07 46.0275 131.683 46.4001 132.381 46.3554C133.207 46.3032 133.479 45.7517 133.51 44.9468C135.23 45.7964 136.957 46.497 138.791 46.9069C138.996 46.9516 139.2 47.0113 139.412 47.0187C139.996 47.0411 140.382 46.743 140.504 46.2063C140.64 45.6324 140.337 45.2225 139.791 45.0735C138.874 44.8201 138.533 44.0822 138.132 43.3593C139.231 44.3282 140.405 45.1927 141.761 45.7815C144.201 46.8398 146.747 47.3019 149.407 47.056C149.869 47.0113 150.278 46.8398 150.68 46.6535C151.157 46.4374 151.301 46.0126 151.233 45.543C151.165 45.0586 150.832 44.6934 150.331 44.6934C148.93 44.7083 148.172 43.7692 147.202 42.763C148.263 43.0984 149.013 43.635 149.839 44.0002C153.135 45.4685 156.424 45.1927 159.682 43.8661C160.561 43.5083 161.394 43.0462 162.167 42.4873C162.667 42.1221 163.137 41.7494 163.16 41.0786C163.175 40.6836 163.531 40.6016 163.766 40.4228C166.805 38.0676 168.396 35.0119 168.411 31.1959C168.411 30.6295 168.267 30.063 168.184 29.4966C168.154 29.2506 167.972 28.8854 168.244 28.796C168.601 28.6768 168.661 29.1165 168.775 29.3475C169.396 30.622 169.768 31.9785 169.942 33.3796C170.252 35.8615 170.169 38.2986 169.214 40.6687C168.222 43.1282 166.418 44.8573 164.221 46.251C159.235 49.4037 153.703 50.3726 147.907 50.0596C142.928 49.7912 138.041 48.9192 133.313 47.3019C132.305 46.9516 131.342 46.4746 130.35 46.0573Z" fill="url(#paint3_linear)"/>
</g>
<ellipse cx="120.271" cy="73.195" rx="3.30285" ry="3.15354" fill="#C4C4C4"/>
<ellipse cx="120.271" cy="73.195" rx="3.30285" ry="3.15354" fill="url(#paint4_linear)"/>
<defs>
<linearGradient id="paint0_linear" x1="25.9769" y1="69.6831" x2="204.056" y2="69.6831" gradientUnits="userSpaceOnUse">
<stop stop-color="#424243"/>
<stop offset="0.4902" stop-color="#C5C5C5"/>
<stop offset="1" stop-color="#424243"/>
</linearGradient>
<linearGradient id="paint1_linear" x1="74.9766" y1="36.0548" x2="164.935" y2="36.0548" gradientUnits="userSpaceOnUse">
<stop stop-color="#8D8D8D"/>
<stop offset="0.4902" stop-color="#C5C5C5"/>
<stop offset="1" stop-color="#767676"/>
</linearGradient>
<linearGradient id="paint2_linear" x1="69.5318" y1="39.7504" x2="110.592" y2="39.7504" gradientUnits="userSpaceOnUse">
<stop stop-color="#757575"/>
<stop offset="0.4902" stop-color="#8B8B8B"/>
<stop offset="1" stop-color="#AFAFAF"/>
</linearGradient>
<linearGradient id="paint3_linear" x1="130.345" y1="39.443" x2="170.1" y2="39.443" gradientUnits="userSpaceOnUse">
<stop stop-color="#979797"/>
<stop offset="0.4902" stop-color="#7C7C7C"/>
<stop offset="1" stop-color="#626262"/>
</linearGradient>
<linearGradient id="paint4_linear" x1="106.672" y1="70.0378" x2="138.748" y2="77.098" gradientUnits="userSpaceOnUse">
<stop stop-color="#5174F0"/>
<stop offset="0.307292" stop-color="#2540A0"/>
<stop offset="0.427083" stop-color="#5174F0"/>
<stop offset="0.546875" stop-color="#1A338C"/>
<stop offset="1" stop-color="#5174F0"/>
</linearGradient>
</defs>
</svg>
