<svg width="17" height="21" viewBox="0 0 17 21" fill="none" xmlns="http://www.w3.org/2000/svg">
<path d="M8.75853 0C4.42028 0 0.890869 3.41176 0.890869 7.60536C0.890869 12.8098 7.93165 20.4501 8.23142 20.7728C8.51299 21.076 9.00458 21.0754 9.28564 20.7728C9.5854 20.4501 16.6262 12.8098 16.6262 7.60536C16.6261 3.41176 13.0967 0 8.75853 0ZM8.75853 11.4318C6.57585 11.4318 4.80015 9.71529 4.80015 7.60536C4.80015 5.49544 6.57589 3.77893 8.75853 3.77893C10.9412 3.77893 12.7169 5.49548 12.7169 7.6054C12.7169 9.71533 10.9412 11.4318 8.75853 11.4318Z" fill="white"/>
</svg>
